<?xml version="1.0" encoding="UTF-8" standalone="no"?>
<!DOCTYPE svg PUBLIC "-//W3C//DTD SVG 1.1//EN" "http://www.w3.org/Graphics/SVG/1.1/DTD/svg11.dtd">
<svg version="1.1" xmlns="http://www.w3.org/2000/svg" xmlns:xlink="http://www.w3.org/1999/xlink" preserveAspectRatio="xMidYMid meet" viewBox="0 0 640 640" width="640" height="640"><defs><path d="" id="b1J8oLkL2"></path><path d="" id="f1S2T7xMmk"></path><path d="M446.93 393.87C442.61 386.76 439.92 382.31 438.84 380.54C419.6 348.78 373.64 348.45 353.94 379.93C352.77 381.8 349.85 386.46 345.18 393.93L446.93 393.87Z" id="gbmfFzQUB"></path><linearGradient id="gradienth20ODm06iE" gradientUnits="userSpaceOnUse" x1="443.12" y1="393.5" x2="356.1" y2="393.04"><stop style="stop-color: #ea801c;stop-opacity: 1" offset="0%"></stop><stop style="stop-color: #ffffff;stop-opacity: 1" offset="100%"></stop></linearGradient><path d="M421.3 323.71C421.3 338.88 409.55 351.2 395.08 351.2C380.61 351.2 368.86 338.88 368.86 323.71C368.86 308.54 380.61 296.22 395.08 296.22C409.55 296.22 421.3 308.54 421.3 323.71Z" id="b1ihUw2Jx"></path><linearGradient id="gradientaZRxJROH" gradientUnits="userSpaceOnUse" x1="421.35" y1="326.73" x2="369.65" y2="327.47"><stop style="stop-color: #ffa73b;stop-opacity: 1" offset="0%"></stop><stop style="stop-color: #ffffff;stop-opacity: 1" offset="100%"></stop></linearGradient><path d="M353.14 323.22C353.14 338.39 341.4 350.71 326.93 350.71C312.45 350.71 300.71 338.39 300.71 323.22C300.71 308.05 312.45 295.74 326.93 295.74C341.4 295.74 353.14 308.05 353.14 323.22Z" id="a2GGsY0rvF"></path><path d="M210.65 393.87C214.96 386.76 217.65 382.31 218.73 380.54C237.97 348.78 283.94 348.45 303.63 379.93C304.8 381.8 307.72 386.46 312.39 393.93L210.65 393.87Z" id="a1LzxUOEuP"></path><linearGradient id="gradientauJXJNVua" gradientUnits="userSpaceOnUse" x1="214.45" y1="393.5" x2="301.47" y2="393.04"><stop style="stop-color: #ea801c;stop-opacity: 1" offset="0%"></stop><stop style="stop-color: #ffffff;stop-opacity: 1" offset="100%"></stop></linearGradient><path d="M378.67 393.87C374.36 386.76 371.67 382.31 370.59 380.54C351.34 348.78 305.38 348.45 285.68 379.93C284.52 381.8 281.6 386.46 276.93 393.93L378.67 393.87Z" id="cd3kZAYyU"></path><path d="M234.49 322.71C234.49 337.88 246.24 350.2 260.71 350.2C275.18 350.2 286.93 337.88 286.93 322.71C286.93 307.54 275.18 295.22 260.71 295.22C246.24 295.22 234.49 307.54 234.49 322.71Z" id="aIMiVBv7q"></path><linearGradient id="gradientb13Jivc5Zz" gradientUnits="userSpaceOnUse" x1="234.44" y1="325.73" x2="286.13" y2="326.47"><stop style="stop-color: #ffa73b;stop-opacity: 1" offset="0%"></stop><stop style="stop-color: #ffffff;stop-opacity: 1" offset="100%"></stop></linearGradient></defs><g><g><g><g><use xlink:href="#b1J8oLkL2" opacity="1" fill-opacity="0" stroke="#652c04" stroke-width="1" stroke-opacity="1"></use></g></g><g><g><use xlink:href="#f1S2T7xMmk" opacity="1" fill-opacity="0" stroke="#652c04" stroke-width="1" stroke-opacity="1"></use></g></g><g><use xlink:href="#gbmfFzQUB" opacity="1" fill="url(#gradienth20ODm06iE)"></use><g><use xlink:href="#gbmfFzQUB" opacity="1" fill-opacity="0" stroke="#000000" stroke-width="2" stroke-opacity="1"></use></g></g><g><use xlink:href="#b1ihUw2Jx" opacity="1" fill="url(#gradientaZRxJROH)"></use><g><use xlink:href="#b1ihUw2Jx" opacity="1" fill-opacity="0" stroke="#000000" stroke-width="2" stroke-opacity="1"></use></g></g><g><use xlink:href="#a2GGsY0rvF" opacity="1" fill="#ffa73b" fill-opacity="1"></use><g><use xlink:href="#a2GGsY0rvF" opacity="1" fill-opacity="0" stroke="#000000" stroke-width="2" stroke-opacity="1"></use></g></g><g><use xlink:href="#a1LzxUOEuP" opacity="1" fill="url(#gradientauJXJNVua)"></use><g><use xlink:href="#a1LzxUOEuP" opacity="1" fill-opacity="0" stroke="#000000" stroke-width="2" stroke-opacity="1"></use></g></g><g><use xlink:href="#cd3kZAYyU" opacity="1" fill="#ffa73b" fill-opacity="1"></use><g><use xlink:href="#cd3kZAYyU" opacity="1" fill-opacity="0" stroke="#000000" stroke-width="2" stroke-opacity="1"></use></g></g><g><use xlink:href="#aIMiVBv7q" opacity="1" fill="url(#gradientb13Jivc5Zz)"></use><g><use xlink:href="#aIMiVBv7q" opacity="1" fill-opacity="0" stroke="#000000" stroke-width="2" stroke-opacity="1"></use></g></g></g></g></svg>